# xmcd
#
# Track frame offsets:
#	150
#	1200
#	18941
#	27428
#	43597
#	64957
#	84199
#	106489
#	132233
#	153540
#	175531
#	194456
#	212100
#	236593
#
# Disc length: 3246 seconds
# Revision: 0
# Processed by: cddbd v1.5.2PL0 Copyright (c) Steve Scherf et al.
# Submitted via: dBpowerAMP V12.0
#
DISCID=b10cac0e
DTITLE=Various Artist - Malice N Wonderland
DYEAR=2009
DGENRE=Hip Hop
TTITLE0=Snoop Dogg - Intro
TTITLE1=Snoop Dogg - I Wanna Rock
TTITLE2=Snoop Dogg - 2 Minute Warning
TTITLE3=Snoop Dogg featuring Lil Jon - 1800
TTITLE4=Snoop Dogg featuring Jazmine Sullivan - Different Languages
TTITLE5=Snoop Dogg featuring The-Dream - Gangsta Luv
TTITLE6=Snoop Dogg featuring Soulja Boy Tell 'Em - Pronto
TTITLE7=Snoop Dogg - That's Tha Homie
TTITLE8=Snoop Dogg featuring Nipsey Hussle and Problem - Upside Down
TTITLE9=Snoop Dogg featuring Kokane - Secrets
TTITLE10=Snoop Dogg featuring R. Kelly - Pimpin Ain't EZ
TTITLE11=Snoop Dogg featuring The-Dream - Luv Drunk
TTITLE12=Snoop Dogg featuring Brandy and Pharrell - Special
TTITLE13=Snoop Dogg - Outro
EXTD=
EXTT0=
EXTT1=
EXTT2=
EXTT3=
EXTT4=
EXTT5=
EXTT6=
EXTT7=
EXTT8=
EXTT9=
EXTT10=
EXTT11=
EXTT12=
EXTT13=
PLAYORDER=
